<svg width="74" height="74" viewBox="0 0 74 74" fill="none" xmlns="http://www.w3.org/2000/svg">
<circle opacity="0.9" cx="36.6453" cy="36.605" r="36.4478" fill="#0575E6"/>
<circle cx="4.09074" cy="4.09074" r="4.09074" transform="matrix(-1 0 0 1 40.7363 34.9619)" stroke="white" stroke-width="2.04537"/>
<path d="M42.7817 29.4226L42.2704 30.3083V30.3083L42.7817 29.4226ZM42.7817 48.6827L42.2704 47.797L42.7817 48.6827ZM30.5093 48.6827L31.0207 47.797L30.5093 48.6827ZM30.5093 29.4226L29.998 28.5369L30.5093 29.4226ZM32.4496 26.8012L31.4533 26.5707L32.4496 26.8012ZM24.2457 35.8942L23.5954 36.6835L24.2457 35.8942ZM23.7683 34.557L22.8027 34.2199L23.7683 34.557ZM27.5257 48.2437L27.2909 47.2483L27.5257 48.2437ZM26.2864 47.9202L25.5098 48.5856L26.2864 47.9202ZM32.4497 51.3044L33.4461 51.074L32.4497 51.3044ZM40.8414 51.3044L41.8378 51.5349L40.8414 51.3044ZM40.0011 52.2727L39.7502 51.2813L40.0011 52.2727ZM47.0047 47.9202L46.2281 47.2548L47.0047 47.9202ZM45.7654 48.2437L45.5306 49.2391L45.7654 48.2437ZM49.5228 34.557L50.4883 34.2199L49.5228 34.557ZM49.0454 35.8942L49.6957 36.6835L49.0454 35.8942ZM23.7683 43.5488L22.8027 43.8858L23.7683 43.5488ZM45.7651 29.8617L45.5304 28.8663L45.7651 29.8617ZM47.0043 30.1851L46.2277 30.8505L47.0043 30.1851ZM49.0454 42.2116L49.6957 41.4223L49.0454 42.2116ZM49.5228 43.5488L48.5573 43.2117L49.5228 43.5488ZM40.8415 26.8012L39.8451 27.0318L40.8415 26.8012ZM40.0012 25.8331L39.7503 26.8245L40.0012 25.8331ZM39.8451 27.0318C40.153 28.3625 40.9924 29.5704 42.2704 30.3083L43.2931 28.5369C42.5262 28.0942 42.0233 27.3722 41.8378 26.5707L39.8451 27.0318ZM42.2704 30.3083C43.4444 30.986 44.7777 31.1452 45.9998 30.857L45.5304 28.8663C44.7953 29.0396 43.9981 28.944 43.2931 28.5369L42.2704 30.3083ZM50.4883 34.2199C49.8808 32.4796 48.9548 30.8896 47.7809 29.5197L46.2277 30.8505C47.2388 32.0305 48.0351 33.3985 48.5573 34.8941L50.4883 34.2199ZM48.5769 39.0529C48.5769 38.0992 49.0107 37.2478 49.6957 36.6835L48.395 35.1049C47.2588 36.0411 46.5315 37.4625 46.5315 39.0529H48.5769ZM49.6957 41.4223C49.0107 40.8579 48.5769 40.0065 48.5769 39.0529H46.5315C46.5315 40.6433 47.2588 42.0646 48.395 43.0009L49.6957 41.4223ZM47.7813 48.5856C48.955 47.2158 49.8808 45.626 50.4883 43.8858L48.5573 43.2117C48.0352 44.7071 47.239 46.075 46.2281 47.2548L47.7813 48.5856ZM43.2931 49.5684C43.9982 49.1613 44.7954 49.0657 45.5306 49.2391L46.0001 47.2483C44.7779 46.96 43.4445 47.1192 42.2704 47.797L43.2931 49.5684ZM41.8378 51.5349C42.0232 50.7333 42.5262 50.0112 43.2931 49.5684L42.2704 47.797C40.9923 48.5349 40.1528 49.7431 39.845 51.074L41.8378 51.5349ZM36.6455 53.7114C37.8887 53.7114 39.0972 53.5564 40.252 53.2642L39.7502 51.2813C38.7581 51.5323 37.7182 51.666 36.6455 51.666V53.7114ZM33.0391 53.2642C34.1939 53.5564 35.4024 53.7114 36.6455 53.7114V51.666C35.5729 51.666 34.533 51.5323 33.5409 51.2813L33.0391 53.2642ZM29.998 49.5684C30.7649 50.0112 31.2679 50.7333 31.4533 51.5349L33.4461 51.074C33.1383 49.7431 32.2988 48.5349 31.0207 47.797L29.998 49.5684ZM27.7604 49.2391C28.4957 49.0657 29.2929 49.1613 29.998 49.5684L31.0207 47.797C29.8466 47.1192 28.5132 46.96 27.2909 47.2483L27.7604 49.2391ZM22.8027 43.8858C23.4102 45.626 24.3361 47.2158 25.5098 48.5856L27.063 47.2548C26.0521 46.075 25.2559 44.7071 24.7338 43.2117L22.8027 43.8858ZM24.7142 39.0529C24.7142 40.0065 24.2803 40.8579 23.5954 41.4223L24.896 43.0009C26.0323 42.0646 26.7596 40.6433 26.7596 39.0529H24.7142ZM23.5954 36.6835C24.2803 37.2478 24.7142 38.0992 24.7142 39.0529H26.7596C26.7596 37.4625 26.0323 36.0411 24.896 35.1049L23.5954 36.6835ZM25.5102 29.5197C24.3363 30.8896 23.4103 32.4795 22.8027 34.2199L24.7338 34.8941C25.2559 33.3985 26.0523 32.0305 27.0633 30.8505L25.5102 29.5197ZM29.998 28.5369C29.2929 28.944 28.4958 29.0396 27.7606 28.8663L27.2912 30.857C28.5134 31.1452 29.8467 30.986 31.0207 30.3083L29.998 28.5369ZM31.4533 26.5707C31.2678 27.3722 30.7648 28.0942 29.998 28.5369L31.0207 30.3083C32.2987 29.5704 33.1381 28.3625 33.446 27.0318L31.4533 26.5707ZM36.6455 24.3944C35.4023 24.3944 34.1938 24.5494 33.039 24.8416L33.5408 26.8245C34.5329 26.5734 35.5729 26.4397 36.6455 26.4397V24.3944ZM40.2521 24.8416C39.0973 24.5494 37.8888 24.3944 36.6455 24.3944V26.4397C37.7182 26.4397 38.7582 26.5734 39.7503 26.8245L40.2521 24.8416ZM33.446 27.0318C33.4673 26.9398 33.5033 26.8749 33.5313 26.8409C33.5554 26.8116 33.5596 26.8197 33.5408 26.8245L33.039 24.8416C32.0965 25.0801 31.6098 25.8941 31.4533 26.5707L33.446 27.0318ZM24.896 35.1049C24.813 35.0365 24.7647 34.9625 24.7454 34.913C24.7291 34.8714 24.7411 34.8732 24.7338 34.8941L22.8027 34.2199C22.44 35.2589 23.002 36.1946 23.5954 36.6835L24.896 35.1049ZM27.2909 47.2483C27.1993 47.2699 27.1253 47.2664 27.0824 47.2564C27.0455 47.2478 27.0505 47.2403 27.063 47.2548L25.5098 48.5856C26.1412 49.3226 27.0847 49.3984 27.7604 49.2391L27.2909 47.2483ZM33.5409 51.2813C33.5598 51.2861 33.5555 51.2942 33.5314 51.2649C33.5034 51.2309 33.4674 51.166 33.4461 51.074L31.4533 51.5349C31.6098 52.2116 32.0965 53.0257 33.0391 53.2642L33.5409 51.2813ZM39.845 51.074C39.8237 51.166 39.7876 51.2309 39.7597 51.2649C39.7356 51.2942 39.7313 51.2861 39.7502 51.2813L40.252 53.2642C41.1946 53.0256 41.6812 52.2116 41.8378 51.5349L39.845 51.074ZM46.2281 47.2548C46.2405 47.2403 46.2456 47.2478 46.2087 47.2564C46.1658 47.2664 46.0918 47.2699 46.0001 47.2483L45.5306 49.2391C46.2064 49.3984 47.1499 49.3226 47.7813 48.5856L46.2281 47.2548ZM48.5573 34.8941C48.55 34.8732 48.562 34.8714 48.5457 34.913C48.5263 34.9625 48.4781 35.0365 48.395 35.1049L49.6957 36.6835C50.2891 36.1946 50.8511 35.259 50.4883 34.2199L48.5573 34.8941ZM24.7338 43.2117C24.7411 43.2325 24.7291 43.2344 24.7454 43.1928C24.7647 43.1433 24.813 43.0693 24.896 43.0009L23.5954 41.4223C23.002 41.9112 22.44 42.8468 22.8027 43.8858L24.7338 43.2117ZM45.9998 30.857C46.0915 30.8354 46.1655 30.839 46.2084 30.849C46.2453 30.8576 46.2402 30.8651 46.2277 30.8505L47.7809 29.5197C47.1496 28.7828 46.2061 28.7069 45.5304 28.8663L45.9998 30.857ZM27.0633 30.8505C27.0509 30.8651 27.0458 30.8576 27.0827 30.849C27.1256 30.839 27.1996 30.8354 27.2912 30.857L27.7606 28.8663C27.0849 28.7069 26.1415 28.7828 25.5102 29.5197L27.0633 30.8505ZM48.395 43.0009C48.4781 43.0693 48.5263 43.1433 48.5457 43.1928C48.562 43.2344 48.55 43.2325 48.5573 43.2117L50.4883 43.8858C50.8511 42.8468 50.2891 41.9112 49.6957 41.4223L48.395 43.0009ZM41.8378 26.5707C41.6813 25.8941 41.1946 25.0801 40.2521 24.8416L39.7503 26.8245C39.7315 26.8197 39.7357 26.8116 39.7598 26.8409C39.7878 26.8749 39.8238 26.9398 39.8451 27.0318L41.8378 26.5707Z" fill="white"/>
</svg>
