<svg width="74" height="73" viewBox="0 0 74 73" fill="none" xmlns="http://www.w3.org/2000/svg">
<circle opacity="0.9" cx="36.8765" cy="36.4834" r="36.4478" fill="#184FA6"/>
<path d="M30.5811 26.2553C30.5811 25.2584 31.3892 24.4502 32.3861 24.4502H38.4031C39.4 24.4502 40.2082 25.2584 40.2082 26.2553V35.8824C40.2082 36.8793 39.4 37.6875 38.4031 37.6875H30.5811V26.2553Z" stroke="white" stroke-width="1.80508"/>
<path d="M40.2083 26.8564H47.4722C48.4557 26.8564 49.0239 27.9722 48.4454 28.7676L46.0513 32.0595C45.4376 32.9034 45.4376 34.0467 46.0513 34.8907L48.4454 38.1825C49.0239 38.9779 48.4557 40.0937 47.4722 40.0937H41.4116C40.747 40.0937 40.2083 39.5549 40.2083 38.8903V26.8564Z" stroke="white" stroke-width="1.80508"/>
<path d="M30.5811 48.5174L30.5811 26.8564" stroke="white" stroke-width="1.80508" stroke-linecap="round" stroke-linejoin="round"/>
</svg>
