<svg width="150" height="222" viewBox="0 0 150 222" fill="none" xmlns="http://www.w3.org/2000/svg">
<path d="M149.446 221.013H0.596485V199.563C23.1298 181.796 40.5715 167.713 52.9215 157.313C65.4882 146.696 77.5132 135.538 88.9965 123.838C100.696 111.921 108.93 101.413 113.696 92.3128C118.463 82.9961 120.846 73.7878 120.846 64.6878C120.846 51.6878 116.405 41.8295 107.521 35.1128C98.6382 28.3961 88.0215 25.0378 75.6715 25.0378C50.7548 25.0378 31.1465 34.1378 16.8465 52.3378L0.271484 35.1128C8.50482 24.2795 19.2298 15.9378 32.4465 10.0878C45.8798 4.02113 60.2882 0.987793 75.6715 0.987793C95.3882 0.987793 112.396 6.51279 126.696 17.5628C141.213 28.6128 148.471 44.3211 148.471 64.6878C148.471 84.8378 139.805 104.988 122.471 125.138C105.138 145.071 78.7048 169.013 43.1715 196.963H149.446V221.013Z" fill="white"/>
</svg>
