<svg width="155" height="225" viewBox="0 0 155 225" fill="none" xmlns="http://www.w3.org/2000/svg">
<path d="M77.5848 224.129C60.2515 224.129 44.8682 220.77 31.4348 214.054C18.0015 207.337 7.70982 198.779 0.559814 188.379L16.4848 171.479C22.9848 180.145 31.5431 187.079 42.1598 192.279C52.7765 197.479 64.3682 200.079 76.9348 200.079C92.7515 200.079 105.101 196.504 113.985 189.354C123.085 181.987 127.635 172.02 127.635 159.454C127.635 146.454 122.76 136.812 113.01 130.529C103.476 124.245 90.3681 121.104 73.6848 121.104C60.9015 121.104 53.4265 121.212 51.2598 121.429V96.7286C53.6432 96.9453 61.1181 97.0536 73.6848 97.0536C88.4182 97.0536 100.443 94.1286 109.76 88.2786C119.293 82.212 124.06 73.2203 124.06 61.3036C124.06 49.8203 119.401 40.8286 110.085 34.3286C100.985 27.6119 89.5015 24.2536 75.6348 24.2536C53.7515 24.2536 34.6848 33.0286 18.4348 50.5786L3.48481 33.6786C21.9015 11.3619 46.6015 0.203613 77.5848 0.203613C99.0348 0.203613 116.585 5.40362 130.235 15.8036C144.101 25.987 151.035 40.0703 151.035 58.0536C151.035 72.3536 146.268 83.837 136.735 92.5036C127.201 100.954 116.368 106.262 104.235 108.429C116.151 109.512 127.418 114.712 138.035 124.029C148.868 133.345 154.285 145.912 154.285 161.729C154.285 180.145 147.351 195.204 133.485 206.904C119.618 218.387 100.985 224.129 77.5848 224.129Z" fill="white"/>
</svg>
