<svg width="17" height="19" viewBox="0 0 17 19" fill="none" xmlns="http://www.w3.org/2000/svg">
<path fill-rule="evenodd" clip-rule="evenodd" d="M0.144381 6.32769C0.446642 4.00859 2.42986 2.21771 4.83135 2.21771H11.4078C13.8093 2.21771 15.7926 4.00859 16.0948 6.32769H0.144381ZM0.104492 7.56078V13.5211C0.104492 16.1316 2.22078 18.2479 4.83135 18.2479H11.4078C14.0184 18.2479 16.1347 16.1316 16.1347 13.5211V7.56078H0.104492ZM3.59858 10.8507C3.25807 10.8507 2.98204 10.5746 2.98204 10.2341C2.98204 9.89362 3.25807 9.61758 3.59858 9.61758H4.42065C4.76116 9.61758 5.03719 9.89362 5.03719 10.2341C5.03719 10.5746 4.76116 10.8507 4.42065 10.8507H3.59858ZM7.09219 10.2341C7.09219 10.5746 7.36823 10.8507 7.70873 10.8507H8.5308C8.87131 10.8507 9.14734 10.5746 9.14734 10.2341C9.14734 9.89362 8.87131 9.61758 8.5308 9.61758H7.70873C7.36823 9.61758 7.09219 9.89362 7.09219 10.2341ZM11.8189 10.8507C11.4784 10.8507 11.2023 10.5746 11.2023 10.2341C11.2023 9.89362 11.4784 9.61758 11.8189 9.61758H12.6409C12.9815 9.61758 13.2575 9.89362 13.2575 10.2341C13.2575 10.5746 12.9815 10.8507 12.6409 10.8507H11.8189ZM2.98201 13.5227C2.98201 13.8632 3.25805 14.1392 3.59856 14.1392H4.42062C4.76113 14.1392 5.03717 13.8632 5.03717 13.5227C5.03717 13.1822 4.76113 12.9061 4.42062 12.9061H3.59856C3.25805 12.9061 2.98201 13.1822 2.98201 13.5227ZM7.70871 14.1392C7.3682 14.1392 7.09216 13.8632 7.09216 13.5227C7.09216 13.1822 7.3682 12.9061 7.70871 12.9061H8.53077C8.87128 12.9061 9.14732 13.1822 9.14732 13.5227C9.14732 13.8632 8.87128 14.1392 8.53077 14.1392H7.70871ZM11.2023 13.5227C11.2023 13.8632 11.4784 14.1392 11.8189 14.1392H12.6409C12.9814 14.1392 13.2575 13.8632 13.2575 13.5227C13.2575 13.1822 12.9814 12.9061 12.6409 12.9061H11.8189C11.4784 12.9061 11.2023 13.1822 11.2023 13.5227ZM11.819 0.984619C11.4785 0.984619 11.2025 1.26066 11.2025 1.60117L11.2025 4.06735C11.2025 4.40786 11.4785 4.6839 11.819 4.6839C12.1595 4.6839 12.4356 4.40786 12.4356 4.06735L12.4356 1.60117C12.4356 1.26066 12.1595 0.984619 11.819 0.984619ZM4.42048 0.984619C4.07997 0.984619 3.80393 1.26066 3.80393 1.60117L3.80393 4.06735C3.80393 4.40786 4.07997 4.6839 4.42048 4.6839C4.76099 4.6839 5.03703 4.40786 5.03703 4.06735L5.03703 1.60117C5.03703 1.26066 4.76099 0.984619 4.42048 0.984619Z" fill="url(#paint0_linear_29_278)"/>
<defs>
<linearGradient id="paint0_linear_29_278" x1="0.412802" y1="17.9914" x2="17.998" y2="14.4402" gradientUnits="userSpaceOnUse">
<stop stop-color="#0574E4"/>
<stop offset="1" stop-color="#083767"/>
</linearGradient>
</defs>
</svg>
