<svg width="39" height="39" viewBox="0 0 39 39" fill="none" xmlns="http://www.w3.org/2000/svg">
<circle cx="19.5" cy="19.5" r="14.625" stroke="black" stroke-width="2.5" stroke-linecap="round" stroke-linejoin="round"/>
<path d="M17.1339 15.3661C16.6457 14.878 15.8543 14.878 15.3661 15.3661C14.878 15.8543 14.878 16.6457 15.3661 17.1339L17.1339 15.3661ZM21.8661 23.6339C22.3543 24.122 23.1457 24.122 23.6339 23.6339C24.122 23.1457 24.122 22.3543 23.6339 21.8661L21.8661 23.6339ZM23.6339 17.1339C24.122 16.6457 24.122 15.8543 23.6339 15.3661C23.1457 14.878 22.3543 14.878 21.8661 15.3661L23.6339 17.1339ZM15.3661 21.8661C14.878 22.3543 14.878 23.1457 15.3661 23.6339C15.8543 24.122 16.6457 24.122 17.1339 23.6339L15.3661 21.8661ZM15.3661 17.1339L21.8661 23.6339L23.6339 21.8661L17.1339 15.3661L15.3661 17.1339ZM21.8661 15.3661L15.3661 21.8661L17.1339 23.6339L23.6339 17.1339L21.8661 15.3661Z" fill="black"/>
</svg>
