<svg width="32" height="32" viewBox="0 0 32 32" fill="none" xmlns="http://www.w3.org/2000/svg">
<path d="M25.1429 27.4036C22.635 29.9115 16.2123 27.555 10.7974 22.1401C5.38251 16.7252 3.02597 10.3025 5.53391 7.79456L7.1852 6.14327C8.32517 5.00329 10.2036 5.03343 11.3807 6.21058L13.9384 8.76828C15.1156 9.94543 15.1457 11.8238 14.0057 12.9638L13.6511 13.3185C13.0356 13.934 12.9753 14.9269 13.5473 15.6199C14.0989 16.2884 14.6936 16.9543 15.3384 17.5991C15.9832 18.2439 16.6491 18.8386 17.3176 19.3902C18.0106 19.9622 19.0035 19.9019 19.619 19.2864L19.9737 18.9318C21.1137 17.7918 22.9921 17.8219 24.1692 18.9991L26.7269 21.5568C27.9041 22.7339 27.9342 24.6123 26.7942 25.7523L25.1429 27.4036Z" stroke="white" stroke-width="1.92493"/>
<path d="M23.3008 13.0083C22.9877 12.2446 22.5211 11.529 21.9009 10.9088C21.3157 10.3236 20.6457 9.87517 19.9303 9.56338" stroke="white" stroke-width="1.92493" stroke-linecap="round"/>
<path d="M19.9302 5.19476C21.643 5.81523 23.2499 6.81201 24.623 8.18512C26.0306 9.59268 27.0427 11.246 27.6594 13.007" stroke="white" stroke-width="1.92493" stroke-linecap="round"/>
</svg>
