<svg width="18" height="22" viewBox="0 0 18 22" fill="none" xmlns="http://www.w3.org/2000/svg">
<path fill-rule="evenodd" clip-rule="evenodd" d="M0.369629 9.33757C0.369629 4.54371 4.29456 0.670898 9.11963 0.670898C13.9447 0.670898 17.8696 4.54371 17.8696 9.33757C17.8696 12.3191 16.1309 15.2618 14.2882 17.4038C13.3557 18.4878 12.3659 19.4029 11.4929 20.0537C11.0571 20.3786 10.6382 20.6467 10.2601 20.8371C9.90565 21.0156 9.50087 21.1709 9.11963 21.1709C8.73839 21.1709 8.33361 21.0156 7.97917 20.8371C7.60107 20.6467 7.18219 20.3786 6.74637 20.0537C5.87334 19.4029 4.88358 18.4878 3.95107 17.4038C2.10835 15.2618 0.369629 12.3191 0.369629 9.33757ZM9.11963 11.9209C7.46277 11.9209 6.11963 10.5778 6.11963 8.9209C6.11963 7.26404 7.46277 5.9209 9.11963 5.9209C10.7765 5.9209 12.1196 7.26404 12.1196 8.9209C12.1196 10.5778 10.7765 11.9209 9.11963 11.9209Z" fill="url(#paint0_linear_0_614)"/>
<defs>
<linearGradient id="paint0_linear_0_614" x1="0.706207" y1="20.8662" x2="20.021" y2="17.2805" gradientUnits="userSpaceOnUse">
<stop stop-color="#0574E4"/>
<stop offset="1" stop-color="#083767"/>
</linearGradient>
</defs>
</svg>
