<svg width="73" height="73" viewBox="0 0 73 73" fill="none" xmlns="http://www.w3.org/2000/svg">
<circle cx="36.6228" cy="36.1425" r="36.0975" fill="url(#paint0_linear_0_853)"/>
<path d="M47.2445 49.6318C44.3051 52.5712 36.7774 49.8093 30.4309 43.4628C24.0845 37.1163 21.3225 29.5886 24.2619 26.6492L26.1973 24.7138C27.5334 23.3777 29.735 23.413 31.1146 24.7927L34.1124 27.7904C35.492 29.1701 35.5274 31.3717 34.1912 32.7078L33.7756 33.1234C33.0542 33.8448 32.9836 35.0086 33.6539 35.8208C34.3004 36.6043 34.9975 37.3847 35.7532 38.1405C36.509 38.8962 37.2894 39.5933 38.0729 40.2398C38.8852 40.9101 40.0489 40.8395 40.7703 40.1182L41.186 39.7025C42.5221 38.3664 44.7236 38.4017 46.1033 39.7813L49.101 42.7791C50.4807 44.1588 50.516 46.3603 49.1799 47.6964L47.2445 49.6318Z" stroke="white" stroke-width="2.2561"/>
<path d="M45.0853 32.7597C44.7184 31.8645 44.1714 31.0258 43.4446 30.2989C42.7587 29.6131 41.9734 29.0874 41.1349 28.722" stroke="white" stroke-width="2.2561" stroke-linecap="round"/>
<path d="M41.135 23.6017C43.1424 24.3289 45.0258 25.4972 46.6352 27.1065C48.2849 28.7562 49.4711 30.694 50.1939 32.758" stroke="white" stroke-width="2.2561" stroke-linecap="round"/>
<defs>
<linearGradient id="paint0_linear_0_853" x1="1.9138" y1="71.167" x2="80.6195" y2="54.0505" gradientUnits="userSpaceOnUse">
<stop stop-color="#0574E4"/>
<stop offset="1" stop-color="#083767"/>
</linearGradient>
</defs>
</svg>
