<svg width="73" height="73" viewBox="0 0 73 73" fill="none" xmlns="http://www.w3.org/2000/svg">
<circle cx="36.6229" cy="36.1425" r="36.0975" fill="#F5F6FA"/>
<path d="M47.2448 49.6318C44.3054 52.5712 36.7777 49.8093 30.4312 43.4628C24.0847 37.1163 21.3227 29.5886 24.2622 26.6492L26.1975 24.7138C27.5336 23.3777 29.7352 23.413 31.1149 24.7927L34.1126 27.7904C35.4923 29.1701 35.5276 31.3717 34.1915 32.7078L33.7758 33.1234C33.0544 33.8448 32.9838 35.0086 33.6541 35.8208C34.3007 36.6043 34.9977 37.3847 35.7535 38.1405C36.5092 38.8962 37.2896 39.5933 38.0731 40.2398C38.8854 40.9101 40.0491 40.8395 40.7705 40.1182L41.1862 39.7025C42.5223 38.3664 44.7239 38.4017 46.1035 39.7813L49.1013 42.7791C50.4809 44.1588 50.5163 46.3603 49.1802 47.6964L47.2448 49.6318Z" stroke="#186FC6" stroke-width="2.2561"/>
<path d="M45.0858 32.7597C44.7189 31.8645 44.1719 31.0258 43.4451 30.2989C42.7592 29.6131 41.9739 29.0874 41.1354 28.722" stroke="#186FC6" stroke-width="2.2561" stroke-linecap="round"/>
<path d="M41.1351 23.6017C43.1425 24.3289 45.026 25.4972 46.6353 27.1065C48.285 28.7562 49.4712 30.694 50.194 32.758" stroke="#186FC6" stroke-width="2.2561" stroke-linecap="round"/>
</svg>
