<svg width="39" height="61" viewBox="0 0 39 61" fill="none" xmlns="http://www.w3.org/2000/svg">
<rect width="38" height="60" rx="19" transform="matrix(-1 0 0 1 38.5532 0.104492)" fill="url(#paint0_linear_84_1032)"/>
<path fill-rule="evenodd" clip-rule="evenodd" d="M20.5441 44.7295C20.4779 45.506 20.0595 46.1045 19.5532 46.1045C19.0009 46.1045 18.5532 45.3922 18.5532 44.5136L18.5532 14.0725L13.4719 19.0998L13.3789 19.1792C13.0544 19.4175 12.593 19.3921 12.2976 19.1022C11.9727 18.7833 11.9716 18.2653 12.2952 17.9451L18.9654 11.3451L19.0587 11.2655C19.3842 11.0266 19.8471 11.0532 20.1422 11.3452L26.8113 17.9452L26.8915 18.0371C27.132 18.3579 27.1042 18.8124 26.8088 19.1022C26.4838 19.4211 25.9581 19.42 25.6345 19.0998L20.5532 14.0711L20.5532 44.5136L20.5441 44.7295Z" fill="white"/>
<defs>
<linearGradient id="paint0_linear_84_1032" x1="0.730856" y1="59.1083" x2="43.3093" y2="53.2438" gradientUnits="userSpaceOnUse">
<stop stop-color="#0574E4"/>
<stop offset="1" stop-color="#083767"/>
</linearGradient>
</defs>
</svg>
