<svg width="39" height="61" viewBox="0 0 39 61" fill="none" xmlns="http://www.w3.org/2000/svg">
<rect width="38" height="60" rx="19" transform="matrix(-1 0 0 1 38.5531 0.685547)" fill="url(#paint0_linear_84_1033)"/>
<path fill-rule="evenodd" clip-rule="evenodd" d="M20.544 45.3105C20.4778 46.087 20.0594 46.6855 19.5531 46.6855C19.0008 46.6855 18.5531 45.9733 18.5531 45.0946L18.5531 14.6536L13.4718 19.6809L13.3788 19.7603C13.0542 19.9986 12.5929 19.9731 12.2975 19.6832C11.9726 19.3644 11.9715 18.8463 12.2951 18.5262L18.9653 11.9262L19.0586 11.8465C19.3841 11.6077 19.847 11.6342 20.142 11.9262L26.8112 18.5262L26.8914 18.6182C27.1318 18.939 27.1041 19.3934 26.8086 19.6833C26.4837 20.0021 25.958 20.001 25.6344 19.6808L20.5531 14.6521L20.5531 45.0946L20.544 45.3105Z" fill="white"/>
<defs>
<linearGradient id="paint0_linear_84_1033" x1="0.730856" y1="59.1083" x2="43.3093" y2="53.2438" gradientUnits="userSpaceOnUse">
<stop stop-color="#0357AB"/>
<stop offset="1" stop-color="#062545"/>
</linearGradient>
</defs>
</svg>
