<svg width="38" height="38" viewBox="0 0 38 38" fill="none" xmlns="http://www.w3.org/2000/svg">
<g filter="url(#filter0_b_0_548)">
<rect x="0.661621" y="0.260742" width="37" height="37" rx="3.44566" fill="white"/>
</g>
<path fill-rule="evenodd" clip-rule="evenodd" d="M30.9532 12.76C31.1315 12.1743 30.9532 11.7432 30.0992 11.7432H27.2797C26.5622 11.7432 26.2313 12.1154 26.052 12.5262C26.052 12.5262 24.618 15.9541 22.5869 18.1808C21.9295 18.8265 21.6309 19.0314 21.2721 19.0314C21.0928 19.0314 20.8232 18.8265 20.8232 18.2398V12.76C20.8232 12.0564 20.6255 11.7432 20.0283 11.7432H15.5944C15.1465 11.7432 14.8769 12.0692 14.8769 12.3792C14.8769 13.0453 15.893 13.1997 15.9972 15.0746V19.1483C15.9972 20.0418 15.8328 20.2037 15.4741 20.2037C14.5181 20.2037 12.1926 16.7597 10.8124 12.819C10.545 12.0521 10.2743 11.7432 9.55354 11.7432H6.73184C5.92625 11.7432 5.76514 12.1154 5.76514 12.5262C5.76514 13.2577 6.7211 16.8916 10.2173 21.6978C12.5482 24.98 15.8296 26.7594 18.8189 26.7594C20.6116 26.7594 20.8328 26.3647 20.8328 25.6836V23.2027C20.8328 22.4122 21.0025 22.2545 21.5708 22.2545C21.9897 22.2545 22.7061 22.4605 24.3796 24.0425C26.2915 25.9185 26.6062 26.7594 27.6825 26.7594H30.502C31.3076 26.7594 31.7115 26.3647 31.4795 25.5838C31.2238 24.8073 30.3108 23.68 29.1003 22.3425C28.4429 21.5809 27.4569 20.7604 27.1572 20.3496C26.7394 19.823 26.8586 19.5881 27.1572 19.1193C27.1572 19.1193 30.5944 14.3721 30.9521 12.76H30.9532Z" fill="#186FC6"/>
<defs>
<filter id="filter0_b_0_548" x="-22.3094" y="-22.7103" width="82.9421" height="82.9421" filterUnits="userSpaceOnUse" color-interpolation-filters="sRGB">
<feFlood flood-opacity="0" result="BackgroundImageFix"/>
<feGaussianBlur in="BackgroundImageFix" stdDeviation="11.4855"/>
<feComposite in2="SourceAlpha" operator="in" result="effect1_backgroundBlur_0_548"/>
<feBlend mode="normal" in="SourceGraphic" in2="effect1_backgroundBlur_0_548" result="shape"/>
</filter>
</defs>
</svg>
