<svg width="38" height="38" viewBox="0 0 38 38" fill="none" xmlns="http://www.w3.org/2000/svg">
<g filter="url(#filter0_b_0_554)">
<rect x="0.753906" y="0.260742" width="37" height="37" rx="3.44566" fill="white"/>
</g>
<path fill-rule="evenodd" clip-rule="evenodd" d="M18.6959 27.1376H18.6233C15.0634 27.1376 12.9773 26.7788 11.5262 25.3562C10.0325 23.8326 9.68506 21.7636 9.68506 18.2151V18.114C9.68506 14.5654 10.0311 12.4822 11.5248 10.9728C12.9901 9.54882 15.0591 9.19141 18.6233 9.19141H18.6945C22.2444 9.19141 24.3277 9.55024 25.7915 10.9728C27.2852 12.4964 27.6313 14.5654 27.6313 18.114V18.2151C27.6313 21.765 27.2852 23.8468 25.7915 25.3562C24.3262 26.7802 22.2572 27.1376 18.6945 27.1376H18.6959ZM25.3728 17.9004C22.9208 17.8078 21.427 17.4945 20.389 16.4508C19.3509 15.407 19.0305 13.909 18.9365 11.4512C18.9354 11.418 18.9214 11.3865 18.8975 11.3634C18.8736 11.3402 18.8416 11.3273 18.8084 11.3273H18.5236C18.4905 11.328 18.459 11.3412 18.4352 11.3641C18.4114 11.3871 18.3972 11.4182 18.3954 11.4512C18.3029 13.909 17.991 15.4042 16.9444 16.4508C15.8978 17.4974 14.4069 17.8078 11.9534 17.9004C11.9202 17.9015 11.8887 17.9155 11.8656 17.9394C11.8424 17.9633 11.8295 17.9953 11.8295 18.0285V18.3133C11.8299 18.3465 11.8429 18.3782 11.866 18.4021C11.889 18.4259 11.9203 18.44 11.9534 18.4415C14.4069 18.534 15.9007 18.8473 16.9444 19.8925C17.9882 20.9377 18.3015 22.4257 18.3954 24.8763C18.3965 24.9096 18.4105 24.9411 18.4344 24.9642C18.4584 24.9873 18.4903 25.0003 18.5236 25.0002H18.8084C18.8415 24.9999 18.8733 24.9869 18.8971 24.9638C18.921 24.9408 18.9351 24.9095 18.9365 24.8763C19.0305 22.4271 19.3424 20.9377 20.3876 19.8925C21.4327 18.8473 22.9251 18.534 25.3714 18.4415C25.4047 18.4404 25.4362 18.4264 25.4593 18.4024C25.4824 18.3785 25.4953 18.3466 25.4953 18.3133V18.0285C25.495 17.9956 25.4822 17.964 25.4594 17.9402C25.4367 17.9164 25.4057 17.9022 25.3728 17.9004Z" fill="#186FC6"/>
<defs>
<filter id="filter0_b_0_554" x="-22.2171" y="-22.7103" width="82.9421" height="82.9421" filterUnits="userSpaceOnUse" color-interpolation-filters="sRGB">
<feFlood flood-opacity="0" result="BackgroundImageFix"/>
<feGaussianBlur in="BackgroundImageFix" stdDeviation="11.4855"/>
<feComposite in2="SourceAlpha" operator="in" result="effect1_backgroundBlur_0_554"/>
<feBlend mode="normal" in="SourceGraphic" in2="effect1_backgroundBlur_0_554" result="shape"/>
</filter>
</defs>
</svg>
