<svg width="38" height="38" viewBox="0 0 38 38" fill="none" xmlns="http://www.w3.org/2000/svg">
<g filter="url(#filter0_b_0_551)">
<rect x="0.707764" y="0.260742" width="37" height="37" rx="3.44566" fill="white"/>
</g>
<path d="M16.5089 22.245L22.6213 18.7118L16.5089 15.1786V22.245ZM30.1233 13.0234C30.2764 13.577 30.3824 14.3189 30.4531 15.2611C30.5355 16.2033 30.5709 17.0159 30.5709 17.7225L30.6415 18.7118C30.6415 21.291 30.4531 23.1871 30.1233 24.4002C29.8289 25.4601 29.1458 26.1432 28.0859 26.4376C27.5324 26.5907 26.5195 26.6967 24.9649 26.7674C23.4339 26.8498 22.0324 26.8852 20.7369 26.8852L18.8643 26.9558C13.9297 26.9558 10.8559 26.7674 9.64281 26.4376C8.58286 26.1432 7.89978 25.4601 7.60535 24.4002C7.45225 23.8467 7.34626 23.1047 7.27559 22.1625C7.19315 21.2203 7.15782 20.4077 7.15782 19.7011L7.08716 18.7118C7.08716 16.1326 7.27559 14.2365 7.60535 13.0234C7.89978 11.9635 8.58286 11.2804 9.64281 10.986C10.1963 10.8329 11.2092 10.7269 12.7638 10.6562C14.2948 10.5738 15.6963 10.5384 16.9918 10.5384L18.8643 10.4678C23.799 10.4678 26.8728 10.6562 28.0859 10.986C29.1458 11.2804 29.8289 11.9635 30.1233 13.0234Z" fill="#186FC6"/>
<defs>
<filter id="filter0_b_0_551" x="-22.2633" y="-22.7103" width="82.9421" height="82.9421" filterUnits="userSpaceOnUse" color-interpolation-filters="sRGB">
<feFlood flood-opacity="0" result="BackgroundImageFix"/>
<feGaussianBlur in="BackgroundImageFix" stdDeviation="11.4855"/>
<feComposite in2="SourceAlpha" operator="in" result="effect1_backgroundBlur_0_551"/>
<feBlend mode="normal" in="SourceGraphic" in2="effect1_backgroundBlur_0_551" result="shape"/>
</filter>
</defs>
</svg>
